<svg width="160" height="48" viewBox="0 0 160 48" fill="none" xmlns="http://www.w3.org/2000/svg">
<path opacity="0.8" d="M22 2C9.84969 2 0 11.8497 0 24C0 36.1503 9.84969 46 22 46C32.901 46 41.9502 38.0716 43.6958 27.6667H43.5379C41.9098 33.9925 36.1674 38.6667 29.3333 38.6667C21.2332 38.6667 14.6667 32.1002 14.6667 24C14.6667 15.8998 21.2332 9.33333 29.3333 9.33333C36.1674 9.33333 41.9098 14.0075 43.5379 20.3333H43.6958C41.9502 9.92838 32.901 2 22 2Z" fill="white"/>
<path d="M0 24C0 11.8497 9.84974 2 22 2C32.901 2 41.9502 9.92838 43.6958 20.3333H28.8713C27.2431 14.0075 21.5007 9.33333 14.6667 9.33333C6.56649 9.33333 0 15.8998 0 24Z" fill="white"/>
<path d="M0 24C0 36.1503 9.84974 46 22 46C32.901 46 41.9502 38.0716 43.6958 27.6667H28.8713C27.2431 33.9925 21.5007 38.6667 14.6667 38.6667C6.56649 38.6667 0 32.1002 0 24Z" fill="white"/>
<path d="M75.4389 20.5075C74.8125 15.9834 71.3324 13.3584 66.8182 13.3584C61.4986 13.3584 57.4915 17.2362 57.4915 23.8186C57.4915 30.3911 61.4489 34.2789 66.8182 34.2789C71.6605 34.2789 74.8721 31.1468 75.4389 27.259L71.7202 27.2391C71.2528 29.6254 69.304 30.9678 66.8679 30.9678C63.5668 30.9678 61.2003 28.4919 61.2003 23.8186C61.2003 19.2249 63.5469 16.6695 66.8778 16.6695C69.3537 16.6695 71.2926 18.0715 71.7202 20.5075H75.4389Z" fill="white"/>
<path d="M83.0529 34.3087C85.4492 34.3087 86.881 33.1851 87.5373 31.9024H87.6566V34.0004H91.1168V23.7789C91.1168 19.7419 87.8256 18.5289 84.9123 18.5289C81.7006 18.5289 79.2347 19.9607 78.4393 22.7448L81.8001 23.222C82.158 22.178 83.1722 21.2831 84.9322 21.2831C86.6026 21.2831 87.5174 22.1382 87.5174 23.6397V23.6993C87.5174 24.7334 86.4336 24.7831 83.739 25.0715C80.7759 25.3897 77.9421 26.2746 77.9421 29.7149C77.9421 32.7178 80.1395 34.3087 83.0529 34.3087ZM83.9876 31.6638C82.4861 31.6638 81.4123 30.9777 81.4123 29.6553C81.4123 28.2732 82.6154 27.6965 84.2262 27.4678C85.1708 27.3385 87.06 27.0999 87.5273 26.722V28.5218C87.5273 30.222 86.1552 31.6638 83.9876 31.6638Z" fill="white"/>
<path d="M102.363 18.7277H99.3498V15.0686H95.7503V18.7277H93.5827V21.5118H95.7503V30.0033C95.7304 32.8769 97.8185 34.2888 100.523 34.2093C101.547 34.1794 102.253 33.9806 102.641 33.8513L102.034 31.0374C101.836 31.0871 101.428 31.1766 100.98 31.1766C100.076 31.1766 99.3498 30.8584 99.3498 29.4067V21.5118H102.363V18.7277Z" fill="white"/>
<path d="M109.768 34.3087C112.164 34.3087 113.596 33.1851 114.252 31.9024H114.371V34.0004H117.832V23.7789C117.832 19.7419 114.54 18.5289 111.627 18.5289C108.415 18.5289 105.95 19.9607 105.154 22.7448L108.515 23.222C108.873 22.178 109.887 21.2831 111.647 21.2831C113.317 21.2831 114.232 22.1382 114.232 23.6397V23.6993C114.232 24.7334 113.148 24.7831 110.454 25.0715C107.491 25.3897 104.657 26.2746 104.657 29.7149C104.657 32.7178 106.854 34.3087 109.768 34.3087ZM110.702 31.6638C109.201 31.6638 108.127 30.9777 108.127 29.6553C108.127 28.2732 109.33 27.6965 110.941 27.4678C111.886 27.3385 113.775 27.0999 114.242 26.722V28.5218C114.242 30.222 112.87 31.6638 110.702 31.6638Z" fill="white"/>
<path d="M125.05 13.6368H121.451V34.0004H125.05V13.6368Z" fill="white"/>
<path d="M135.414 34.2987C139.888 34.2987 142.732 31.1468 142.732 26.4237C142.732 21.6908 139.888 18.5289 135.414 18.5289C130.939 18.5289 128.095 21.6908 128.095 26.4237C128.095 31.1468 130.939 34.2987 135.414 34.2987ZM135.434 31.4152C132.958 31.4152 131.745 29.2078 131.745 26.4138C131.745 23.6198 132.958 21.3825 135.434 21.3825C137.87 21.3825 139.083 23.6198 139.083 26.4138C139.083 29.2078 137.87 31.4152 135.434 31.4152Z" fill="white"/>
<path d="M152.429 40.0459C156.555 40.0459 159.598 38.1567 159.598 34.249V18.7277H156.048V21.2533H155.849C155.303 20.1496 154.159 18.5289 151.464 18.5289C147.935 18.5289 145.16 21.2931 145.16 26.3144C145.16 31.2959 147.935 33.7817 151.455 33.7817C154.07 33.7817 155.293 32.3797 155.849 31.2561H156.028V34.1496C156.028 36.3968 154.537 37.3215 152.489 37.3215C150.321 37.3215 149.366 36.2973 148.929 35.4024L145.687 36.1879C146.344 38.3257 148.541 40.0459 152.429 40.0459ZM152.459 30.9578C150.082 30.9578 148.83 29.1084 148.83 26.2945C148.83 23.5203 150.062 21.482 152.459 21.482C154.776 21.482 156.048 23.401 156.048 26.2945C156.048 29.2078 154.756 30.9578 152.459 30.9578Z" fill="white"/>
</svg>
