<svg width="216" height="48" viewBox="0 0 216 48" fill="none" xmlns="http://www.w3.org/2000/svg">
<path opacity="0.8" d="M20.5333 31.3333C28.6335 31.3333 35.2 24.7668 35.2 16.6667C35.2 8.56649 28.6335 2 20.5333 2H0V31.3333H20.5333Z" fill="white"/>
<path opacity="0.6" d="M0 2L35.2 46H11.7333L0 31.3333V2Z" fill="white"/>
<path d="M23.2637 31.0796C22.3791 31.2462 21.4664 31.3333 20.5333 31.3333H0V2L23.2637 31.0796Z" fill="white"/>
<path d="M59.34 33.2805C57.2867 33.2805 55.5227 32.8698 54.048 32.0485C52.592 31.2085 51.472 30.0325 50.688 28.5205C49.904 26.9898 49.512 25.1885 49.512 23.1165C49.512 21.0445 49.904 19.2525 50.688 17.7405C51.472 16.2285 52.592 15.0618 54.048 14.2405C55.5227 13.4005 57.2867 12.9805 59.34 12.9805C60.6653 12.9805 61.916 13.1858 63.092 13.5965C64.2867 14.0071 65.2667 14.5951 66.032 15.3605L64.856 18.2165C64.016 17.5071 63.1573 16.9938 62.28 16.6765C61.4027 16.3405 60.46 16.1725 59.452 16.1725C57.4547 16.1725 55.9333 16.7791 54.888 17.9925C53.8427 19.1871 53.32 20.8951 53.32 23.1165C53.32 25.3378 53.8427 27.0551 54.888 28.2685C55.9333 29.4818 57.4547 30.0885 59.452 30.0885C60.46 30.0885 61.4027 29.9298 62.28 29.6125C63.1573 29.2765 64.016 28.7538 64.856 28.0445L66.032 30.9005C65.2667 31.6471 64.2867 32.2351 63.092 32.6645C61.916 33.0751 60.6653 33.2805 59.34 33.2805Z" fill="white"/>
<path d="M74.0835 33.2805C72.6649 33.2805 71.4329 32.9911 70.3875 32.4125C69.3422 31.8338 68.5302 31.0125 67.9515 29.9485C67.3729 28.8658 67.0835 27.5965 67.0835 26.1405C67.0835 24.6845 67.3729 23.4245 67.9515 22.3605C68.5302 21.2965 69.3422 20.4751 70.3875 19.8965C71.4329 19.3178 72.6649 19.0285 74.0835 19.0285C75.5022 19.0285 76.7342 19.3178 77.7795 19.8965C78.8249 20.4751 79.6369 21.2965 80.2155 22.3605C80.7942 23.4245 81.0835 24.6845 81.0835 26.1405C81.0835 27.5965 80.7942 28.8658 80.2155 29.9485C79.6369 31.0125 78.8249 31.8338 77.7795 32.4125C76.7342 32.9911 75.5022 33.2805 74.0835 33.2805ZM74.0835 30.6205C75.1289 30.6205 75.9689 30.2471 76.6035 29.5005C77.2382 28.7351 77.5555 27.6151 77.5555 26.1405C77.5555 24.6471 77.2382 23.5365 76.6035 22.8085C75.9689 22.0618 75.1289 21.6885 74.0835 21.6885C73.0382 21.6885 72.1982 22.0618 71.5635 22.8085C70.9289 23.5365 70.6115 24.6471 70.6115 26.1405C70.6115 27.6151 70.9289 28.7351 71.5635 29.5005C72.1982 30.2471 73.0382 30.6205 74.0835 30.6205Z" fill="white"/>
<path d="M84.0283 33.0005V19.3085H87.4443V21.4085C87.855 20.6618 88.4243 20.0831 89.1523 19.6725C89.8803 19.2431 90.7203 19.0285 91.6723 19.0285C93.7257 19.0285 95.0697 19.9245 95.7043 21.7165C96.1337 20.8765 96.7497 20.2231 97.5523 19.7565C98.355 19.2711 99.2697 19.0285 100.296 19.0285C103.376 19.0285 104.916 20.9045 104.916 24.6565V33.0005H101.416V24.7965C101.416 23.7511 101.239 22.9858 100.884 22.5005C100.548 22.0151 99.9697 21.7725 99.1483 21.7725C98.2337 21.7725 97.515 22.0991 96.9923 22.7525C96.4697 23.3871 96.2083 24.2738 96.2083 25.4125V33.0005H92.7083V24.7965C92.7083 23.7511 92.531 22.9858 92.1763 22.5005C91.8403 22.0151 91.271 21.7725 90.4683 21.7725C89.5537 21.7725 88.835 22.0991 88.3123 22.7525C87.7897 23.3871 87.5283 24.2738 87.5283 25.4125V33.0005H84.0283Z" fill="white"/>
<path d="M108.583 33.0005V19.3085H111.999V21.4085C112.41 20.6618 112.979 20.0831 113.707 19.6725C114.435 19.2431 115.275 19.0285 116.227 19.0285C118.28 19.0285 119.624 19.9245 120.259 21.7165C120.688 20.8765 121.304 20.2231 122.107 19.7565C122.91 19.2711 123.824 19.0285 124.851 19.0285C127.931 19.0285 129.471 20.9045 129.471 24.6565V33.0005H125.971V24.7965C125.971 23.7511 125.794 22.9858 125.439 22.5005C125.103 22.0151 124.524 21.7725 123.703 21.7725C122.788 21.7725 122.07 22.0991 121.547 22.7525C121.024 23.3871 120.763 24.2738 120.763 25.4125V33.0005H117.263V24.7965C117.263 23.7511 117.086 22.9858 116.731 22.5005C116.395 22.0151 115.826 21.7725 115.023 21.7725C114.108 21.7725 113.39 22.0991 112.867 22.7525C112.344 23.3871 112.083 24.2738 112.083 25.4125V33.0005H108.583Z" fill="white"/>
<path d="M137.59 33.2805C136.6 33.2805 135.714 33.0938 134.93 32.7205C134.164 32.3285 133.558 31.8058 133.11 31.1525C132.68 30.4991 132.466 29.7618 132.466 28.9405C132.466 27.9325 132.727 27.1391 133.25 26.5605C133.772 25.9631 134.622 25.5338 135.798 25.2725C136.974 25.0111 138.551 24.8805 140.53 24.8805H141.51V24.2925C141.51 23.3591 141.304 22.6871 140.894 22.2765C140.483 21.8658 139.792 21.6605 138.822 21.6605C138.056 21.6605 137.272 21.7818 136.47 22.0245C135.667 22.2485 134.855 22.6031 134.034 23.0885L133.026 20.7085C133.511 20.3725 134.08 20.0831 134.734 19.8405C135.406 19.5791 136.106 19.3831 136.834 19.2525C137.58 19.1031 138.28 19.0285 138.934 19.0285C140.931 19.0285 142.415 19.4951 143.386 20.4285C144.356 21.3431 144.842 22.7711 144.842 24.7125V33.0005H141.566V30.8165C141.248 31.5818 140.744 32.1885 140.054 32.6365C139.363 33.0658 138.542 33.2805 137.59 33.2805ZM138.318 30.8725C139.232 30.8725 139.988 30.5551 140.586 29.9205C141.202 29.2858 141.51 28.4831 141.51 27.5125V26.8965H140.558C138.803 26.8965 137.58 27.0365 136.89 27.3165C136.218 27.5778 135.882 28.0631 135.882 28.7725C135.882 29.3885 136.096 29.8925 136.526 30.2845C136.955 30.6765 137.552 30.8725 138.318 30.8725Z" fill="white"/>
<path d="M148.394 33.0005V19.3085H151.81V21.4365C152.277 20.6525 152.902 20.0551 153.686 19.6445C154.489 19.2338 155.385 19.0285 156.374 19.0285C159.604 19.0285 161.218 20.9045 161.218 24.6565V33.0005H157.718V24.8245C157.718 23.7605 157.513 22.9858 157.102 22.5005C156.71 22.0151 156.094 21.7725 155.254 21.7725C154.228 21.7725 153.406 22.0991 152.79 22.7525C152.193 23.3871 151.894 24.2365 151.894 25.3005V33.0005H148.394Z" fill="white"/>
<path d="M170.037 33.2805C168.842 33.2805 167.788 32.9911 166.873 32.4125C165.977 31.8338 165.277 31.0125 164.773 29.9485C164.269 28.8658 164.017 27.5965 164.017 26.1405C164.017 24.6658 164.269 23.4058 164.773 22.3605C165.277 21.2965 165.977 20.4751 166.873 19.8965C167.788 19.3178 168.842 19.0285 170.037 19.0285C171.008 19.0285 171.885 19.2431 172.669 19.6725C173.453 20.1018 174.041 20.6711 174.433 21.3805V13.2605H177.933V33.0005H174.517V30.7325C174.144 31.5165 173.556 32.1418 172.753 32.6085C171.95 33.0565 171.045 33.2805 170.037 33.2805ZM171.017 30.6205C172.062 30.6205 172.902 30.2471 173.537 29.5005C174.172 28.7351 174.489 27.6151 174.489 26.1405C174.489 24.6471 174.172 23.5365 173.537 22.8085C172.902 22.0618 172.062 21.6885 171.017 21.6885C169.972 21.6885 169.132 22.0618 168.497 22.8085C167.862 23.5365 167.545 24.6471 167.545 26.1405C167.545 27.6151 167.862 28.7351 168.497 29.5005C169.132 30.2471 169.972 30.6205 171.017 30.6205Z" fill="white"/>
<path d="M186.854 31.8805V26.1965H181.31V23.7325H186.854V18.2165H189.43V23.7325H194.974V26.1965H189.43V31.8805H186.854Z" fill="white"/>
<path d="M198.687 33.0005V13.2605H207.255C209.421 13.2605 211.091 13.7831 212.267 14.8285C213.443 15.8551 214.031 17.3018 214.031 19.1685C214.031 20.6431 213.649 21.8658 212.883 22.8365C212.118 23.7885 211.017 24.4325 209.579 24.7685C210.531 25.0671 211.315 25.7858 211.931 26.9245L215.235 33.0005H211.287L207.871 26.7005C207.535 26.0845 207.134 25.6645 206.667 25.4405C206.219 25.2165 205.641 25.1045 204.931 25.1045H202.271V33.0005H198.687ZM202.271 22.4445H206.639C209.253 22.4445 210.559 21.3805 210.559 19.2525C210.559 17.1431 209.253 16.0885 206.639 16.0885H202.271V22.4445Z" fill="white"/>
</svg>
