<svg width="363" height="205" viewBox="0 0 363 205" fill="none" xmlns="http://www.w3.org/2000/svg"><path d="M2.89 174.091a2 2 0 1 0-1.778 3.583l1.778-3.583Zm115.14 27.223-.401-1.959.401 1.959Zm79.143-162.011-1.843.777 1.843-.777Zm-68.596-34.09-.746-1.855.746 1.855ZM95.774 72.176l-1.972.34 1.971-.34Zm162.689 85.21-.611-1.904.611 1.904Zm92.619-137.494 1.908-.6-.929-2.954-2.311 2.061 1.332 1.493Zm-16.809 12.513 1.017 1.722-1.017-1.722Zm24.184 17.622a2 2 0 1 0 3.816-1.2l-3.816 1.2Zm-38.642-12.639a2 2 0 0 0 1.665 3.638l-1.665-3.638ZM2.001 175.883a231.914 231.914 0 0 0-.887 1.792l.003.002.01.005.042.02.157.077a206.356 206.356 0 0 0 2.939 1.395c2.025.942 4.966 2.274 8.636 3.842 7.338 3.135 17.604 7.217 29.316 11.006 23.322 7.545 52.759 14.057 76.214 9.251l-.802-3.918c-22.367 4.582-50.944-1.622-74.181-9.139-11.568-3.743-21.718-7.778-28.976-10.879a298.629 298.629 0 0 1-8.522-3.79 192.394 192.394 0 0 1-2.868-1.362l-.147-.071a2.23 2.23 0 0 1-.035-.018l-.008-.004-.002-.001-.89 1.792Zm116.43 27.39c26.641-5.458 48.659-21.007 64.203-41.743l-3.201-2.399c-15.033 20.055-36.239 34.986-61.804 40.224l.802 3.918Zm64.203-41.743c25.456-33.957 33.682-82.005 16.382-123.005l-3.686 1.555c16.698 39.573 8.784 86.127-15.897 119.051l3.201 2.399Zm16.382-123.005c-8.411-19.931-22.068-30.433-35.733-35.077-13.575-4.614-27.126-3.436-35.452-.09l1.492 3.711c7.412-2.978 19.976-4.15 32.673.166 12.607 4.285 25.378 13.99 33.334 32.845l3.686-1.555ZM127.831 3.358c-13.374 5.373-23.671 12.857-29.71 24.08-6.028 11.204-7.636 25.81-4.319 45.077l3.942-.679c-3.23-18.764-1.553-32.368 3.9-42.503 5.443-10.116 14.822-17.098 27.679-22.264l-1.492-3.711ZM93.802 72.515c8.198 47.604 43.636 79.059 86.75 89.757l.963-3.882c-41.83-10.379-75.884-40.759-83.77-86.554l-3.943.68Zm86.75 89.757c24.819 6.158 52.215 5.455 78.522-2.981l-1.222-3.809c-25.606 8.211-52.245 8.885-76.337 2.908l-.963 3.882Zm78.522-2.981c16.587-5.32 30.724-16.786 42.57-30.815 11.852-14.035 21.502-30.74 29.096-46.727 7.598-15.996 13.166-31.331 16.833-42.663a335.005 335.005 0 0 0 4.099-13.6c.452-1.63.789-2.906 1.014-3.777a118.505 118.505 0 0 0 .317-1.256l.017-.067.004-.018.001-.005c.001-.001.001-.002-1.943-.471l-1.945-.469v.003l-.004.014-.014.06-.061.243c-.054.217-.136.541-.245.966-.22.85-.551 2.104-.996 3.71a333.401 333.401 0 0 1-4.049 13.435c-3.632 11.22-9.138 26.383-16.641 42.179-7.507 15.803-16.985 32.18-28.539 45.863-11.56 13.688-25.108 24.574-40.736 29.586l1.222 3.809Zm92.008-139.4L349.75 18.4l-.004.004-.017.015-.069.061-.278.244c-.245.214-.606.526-1.065.917-.919.781-2.231 1.875-3.797 3.119-3.144 2.497-7.264 5.56-11.264 7.924l2.034 3.444c4.23-2.499 8.514-5.692 11.718-8.236a151.928 151.928 0 0 0 5.004-4.154l.295-.259a7.064 7.064 0 0 1 .098-.087l.005-.004.002-.002h.001l-1.331-1.493Zm-1.908.6 9.283 29.536 3.816-1.2-9.283-29.535-3.816 1.2Zm-28.526 18.716.832 1.819.002-.001.005-.003.021-.01.081-.037.308-.141 1.127-.524c.949-.443 2.261-1.061 3.707-1.759 2.869-1.384 6.346-3.117 8.559-4.424l-2.034-3.444c-2.05 1.21-5.385 2.877-8.263 4.265a328.8 328.8 0 0 1-4.773 2.254l-.301.139a6.294 6.294 0 0 0-.078.036l-.02.009-.004.002h-.002l.833 1.819Z" fill="#FFD44B"/></svg>