<svg width="50" height="50" viewBox="10 0 20 50" fill="none" xmlns="http://www.w3.org/2000/svg"><path opacity=".4" d="M28.154 0h6.772c2.804 0 5.077 2.292 5.077 5.12v6.829c0 2.828-2.273 5.12-5.077 5.12h-6.772c-2.805 0-5.077-2.292-5.077-5.12v-6.83C23.077 2.293 25.349 0 28.154 0" fill="#03F"/><path d="M11.849 22.931c2.804 0 5.077 2.292 5.077 5.12v6.83c0 2.825-2.272 5.119-5.077 5.119H5.077C2.273 40 0 37.706 0 34.88v-6.829c0-2.828 2.273-5.12 5.077-5.12zm23.074 0c2.804 0 5.077 2.292 5.077 5.12v6.83C40 37.705 37.727 40 34.923 40h-6.772c-2.805 0-5.077-2.294-5.077-5.12v-6.829c0-2.828 2.272-5.12 5.077-5.12zM11.849 0c2.804 0 5.077 2.292 5.077 5.12v6.829c0 2.828-2.272 5.12-5.077 5.12H5.077C2.273 17.069 0 14.777 0 11.949v-6.83C0 2.293 2.273 0 5.077 0z" fill="#36F"/><path d="M34.923 22.931c2.804 0 5.077 2.292 5.077 5.12v6.83C40 37.705 37.727 40 34.923 40h-6.772c-2.805 0-5.077-2.294-5.077-5.12v-6.829c0-2.828 2.272-5.12 5.077-5.12z" fill="#69F"/><path d="M5.077 22.931h6.772c2.804 0 5.077 2.292 5.077 5.12v6.83c0 2.825-2.272 5.119-5.077 5.119H5.077C2.273 40 0 37.706 0 34.88v-6.829c0-2.828 2.273-5.12 5.077-5.12" fill="#9CF"/></svg>