<svg width="50px" height="50px" xmlns="http://www.w3.org/2000/svg" viewBox="0 0 490 490" xml:space="preserve">
  <path d="M489.976 110c-.001-2.602-.993-5.158-2.905-7.071l-100-100C385.158 1.017 382.601.026 380 .025V0H110c-5.523 0-10 4.477-10 10v50H10C4.477 60 0 64.478 0 70v355c0 5.522 4.477 10 10 10h90v45c0 5.522 4.477 10 10 10h370c5.523 0 10-4.478 10-10V110zM390 34.143 455.858 100H390zM20 415V80h172.5v67.5c0 5.523 4.477 10 10 10H270V415zm192.5-277.5V94.143l43.357 43.357zM470 470H120v-35h160c5.523 0 10-4.478 10-10V147.5c0-2.652-1.054-5.195-2.929-7.071l-77.5-77.5A10 10 0 0 0 202.5 60H120V20h250v90c0 5.522 4.477 10 10 10h90z" fill="#D2B48C"/>
  <path d="M310 160h130v20H310zm0 60h130v20H310zm0 60h130v20H310zm0 60h130v20H310zm0 60h130v20H310zM45 105h65v20H45zm0 40h65v20H45zm0 60h200v20H45zm0 50h200v20H45zm0 50h200v20H45zm0 50h200v20H45z" fill="#D2B48C"/>
</svg>
